<svg height="512" viewBox="0 0 64 64" width="512" xmlns="http://www.w3.org/2000/svg"><g id="facemask-coronavirus-mask-protect-covid19"><path d="m58.511 40.13c-.035 0-.07 0-.106-.005a1 1 0 0 1 -.89-1.1l2.66-25.279a5.634 5.634 0 0 0 .035-.666 6.106 6.106 0 1 0 -12.158.83l1.93 14.68a1 1 0 0 1 -1.982.261l-1.932-14.681a8.106 8.106 0 1 1 16.142-1.09 7.514 7.514 0 0 1 -.047.886l-2.663 25.268a1 1 0 0 1 -.989.896z" fill="#2488ff"/><path d="m5.489 40.13a1 1 0 0 1 -.993-.9l-2.661-25.275a7.639 7.639 0 0 1 -.045-.875 8.106 8.106 0 1 1 16.142 1.09l-1.932 14.681a1 1 0 1 1 -1.983-.261l1.93-14.68a6.106 6.106 0 1 0 -12.157-.83 5.729 5.729 0 0 0 .033.654l2.662 25.291a1 1 0 0 1 -.89 1.1c-.035.003-.071.005-.106.005z" fill="#2488ff"/><path d="m58.627 37.264-9.637-10.545-2.227-2.436a20 20 0 0 0 -29.526 0l-2.227 2.436-9.637 10.545a8 8 0 0 0 .339 11.143l1.241 1.2a36 36 0 0 0 50.094 0l1.241-1.2a8 8 0 0 0 .339-11.143z" fill="#9bc9ff"/><path d="m58.627 37.264-9.637-10.545-2.227-2.436a19.947 19.947 0 0 0 -16.763-6.407 19.9 19.9 0 0 1 12.763 6.407l2.227 2.436 9.637 10.545a8 8 0 0 1 -.339 11.143l-1.241 1.2a35.873 35.873 0 0 1 -23.047 10.083 35.915 35.915 0 0 0 27.047-10.081l1.241-1.2a8 8 0 0 0 .339-11.145z" fill="#57a4ff"/><g fill="#f1f2f2"><path d="m50.394 43.53a35.2 35.2 0 0 1 -36.719.039 1 1 0 1 0 -1.05 1.7 37.206 37.206 0 0 0 38.821-.041 1 1 0 1 0 -1.052-1.7z"/><path d="m16.953 40.554a37.062 37.062 0 0 0 30.155-.021 1 1 0 0 0 -.816-1.826 35.063 35.063 0 0 1 -28.525.02 1 1 0 1 0 -.814 1.827z"/><path d="m22.471 34.5a36.777 36.777 0 0 0 9.521 1.251 36.988 36.988 0 0 0 9.577-1.261 1 1 0 1 0 -.518-1.932 34.91 34.91 0 0 1 -18.062.01 1 1 0 1 0 -.518 1.932z"/></g></g></svg>